<svg xmlns="http://www.w3.org/2000/svg" id="canvas_140" width="700" height="576" opacity="1" fill-opacity="1" stroke-opacity="1" transform="matrix(1,0,0,1,0,0)" style="width: 700px; height: 576px; background: rgb(255, 255, 255); cursor: default;" xmlns:ns1="http://www.w3.org/2000/svg" ns1:xlink="http://www.w3.org/1999/xlink"><g id="gWaterWrap"/><defs id="defs_140"/><g id="gTextWrap"><text y="50" x="20" id="gTitle" text-anchor="start" fill="rgb(0,0,0)" style="font-size:36px;white-space: pre;font-weight:900;cursor:pointer;font-family:regular;color:#595757"><tspan x="20" dy="0">近五年留学生总量</tspan></text><rect width="700px" height="83px" x="0" y="496" fill="#fff"/><text y="506" x="20" id="gSource" text-anchor="start" style="font-size: 14px; white-space: pre;cursor:pointer;font-family:regular;color:#595757" fill="rgb(0,0,0)">数据来源：教育部</text><line y1="512" x1="20" y2="512" x2="680" stroke="#e1e1e1" stroke-width="2"/><text y="551" x="680" id="gPro" text-anchor="end" fill="rgb(0,0,0)" style="font-size: 14px; fill-opacity: 1; white-space: pre;cursor:font-weight:900;pointer;font-family:regular;color#727171">CGTN数据第六组</text></g><g stroke="none" fill="none" opacity="1" fill-opacity="1" stroke-opacity="1" transform="matrix(1,0,0,1,0,0)"><path stroke="none" fill="none" d="M 0,0 l 700,0 l 0,576 l-700 0 z" opacity="1" fill-opacity="1" stroke-opacity="1" transform="matrix(1,0,0,1,0,0)" stroke-width="1" width="700" height="576"/><path stroke="none" fill="none" d="M 80,106 l 570,0 l 0,350 l-570 0 z" opacity="1" fill-opacity="1" stroke-opacity="1" transform="matrix(1,0,0,1,0,0)" stroke-width="1" width="570" height="350"/></g><g stroke="none" fill="none" opacity="1" fill-opacity="1" stroke-opacity="1" transform="matrix(1,0,0,1,0,0)"><g stroke="none" fill="none" opacity="1" fill-opacity="1" stroke-opacity="1" transform="matrix(1,0,0,1,0,0)"><path fill="none" opacity="1" fill-opacity="1" stroke-opacity="1" transform="matrix(1,0,0,1,0,0)" stroke-width="1" stroke="#E9E9E9" stroke-dasharray="3,3" d="M 80 386L 650 386"/><path fill="none" opacity="1" fill-opacity="1" stroke-opacity="1" transform="matrix(1,0,0,1,0,0)" stroke-width="1" stroke="#E9E9E9" stroke-dasharray="3,3" d="M 80 316L 650 316"/><path fill="none" opacity="1" fill-opacity="1" stroke-opacity="1" transform="matrix(1,0,0,1,0,0)" stroke-width="1" stroke="#E9E9E9" stroke-dasharray="3,3" d="M 80 246L 650 246"/><path fill="none" opacity="1" fill-opacity="1" stroke-opacity="1" transform="matrix(1,0,0,1,0,0)" stroke-width="1" stroke="#E9E9E9" stroke-dasharray="3,3" d="M 80 176L 650 176"/><path fill="none" opacity="1" fill-opacity="1" stroke-opacity="1" transform="matrix(1,0,0,1,0,0)" stroke-width="1" stroke="#E9E9E9" stroke-dasharray="3,3" d="M 80 106L 650 106"/></g><g stroke="none" fill="none" opacity="1" fill-opacity="1" stroke-opacity="1" transform="matrix(1,0,0,1,0,0)"><text paint-order="stroke" style="stroke-linecap:butt; stroke-linejoin:miter;" alignment-baseline="central" text-anchor="middle" opacity="1" fill-opacity="1" stroke-opacity="1" transform="matrix(1,0,0,1,0,0)" stroke-width="1" font-size="14" font-family="regular" font-style="normal" font-weight="normal" font-variant="normal" x="137" y="472" fill="#404040" font="normal normal normal 14px regular">2014年</text><text paint-order="stroke" style="stroke-linecap:butt; stroke-linejoin:miter;" alignment-baseline="central" text-anchor="middle" opacity="1" fill-opacity="1" stroke-opacity="1" transform="matrix(1,0,0,1,0,0)" stroke-width="1" font-size="14" font-family="regular" font-style="normal" font-weight="normal" font-variant="normal" x="251.00000000000003" y="472" fill="#404040" font="normal normal normal 14px regular">2015年</text><text paint-order="stroke" style="stroke-linecap:butt; stroke-linejoin:miter;" alignment-baseline="central" text-anchor="middle" opacity="1" fill-opacity="1" stroke-opacity="1" transform="matrix(1,0,0,1,0,0)" stroke-width="1" font-size="14" font-family="regular" font-style="normal" font-weight="normal" font-variant="normal" x="365" y="472" fill="#404040" font="normal normal normal 14px regular">2016年</text><text paint-order="stroke" style="stroke-linecap:butt; stroke-linejoin:miter;" alignment-baseline="central" text-anchor="middle" opacity="1" fill-opacity="1" stroke-opacity="1" transform="matrix(1,0,0,1,0,0)" stroke-width="1" font-size="14" font-family="regular" font-style="normal" font-weight="normal" font-variant="normal" x="479.00000000000006" y="472" fill="#404040" font="normal normal normal 14px regular">2017年</text><text paint-order="stroke" style="stroke-linecap:butt; stroke-linejoin:miter;" alignment-baseline="central" text-anchor="middle" opacity="1" fill-opacity="1" stroke-opacity="1" transform="matrix(1,0,0,1,0,0)" stroke-width="1" font-size="14" font-family="regular" font-style="normal" font-weight="normal" font-variant="normal" x="593" y="472" fill="#404040" font="normal normal normal 14px regular">2018年</text></g><path fill="none" opacity="1" fill-opacity="1" stroke-opacity="1" transform="matrix(1,0,0,1,0,0)" stroke-width="1" d="M 80 456L 650 456" stroke="#BFBFBF"/><path fill="none" opacity="1" fill-opacity="1" stroke-opacity="1" transform="matrix(1,0,0,1,0,0)" stroke-width="1" stroke="#BFBFBF" d="M 137 456L 137 460M 251.00000000000003 456L 251.00000000000003 460M 365 456L 365 460M 479.00000000000006 456L 479.00000000000006 460M 593 456L 593 460"/><g stroke="none" fill="none" opacity="1" fill-opacity="1" stroke-opacity="1" transform="matrix(1,0,0,1,0,0)"><text paint-order="stroke" style="stroke-linecap:butt; stroke-linejoin:miter;" alignment-baseline="central" text-anchor="end" opacity="1" fill-opacity="1" stroke-opacity="1" transform="matrix(1,0,0,1,0,0)" stroke-width="1" font-size="14" font-family="regular" font-style="normal" font-weight="normal" font-variant="normal" x="72" y="456" fill="#404040">0</text><text paint-order="stroke" style="stroke-linecap:butt; stroke-linejoin:miter;" alignment-baseline="central" text-anchor="end" opacity="1" fill-opacity="1" stroke-opacity="1" transform="matrix(1,0,0,1,0,0)" stroke-width="1" font-size="14" font-family="regular" font-style="normal" font-weight="normal" font-variant="normal" x="72" y="386" fill="#404040">100,000</text><text paint-order="stroke" style="stroke-linecap:butt; stroke-linejoin:miter;" alignment-baseline="central" text-anchor="end" opacity="1" fill-opacity="1" stroke-opacity="1" transform="matrix(1,0,0,1,0,0)" stroke-width="1" font-size="14" font-family="regular" font-style="normal" font-weight="normal" font-variant="normal" x="72" y="316" fill="#404040">200,000</text><text paint-order="stroke" style="stroke-linecap:butt; stroke-linejoin:miter;" alignment-baseline="central" text-anchor="end" opacity="1" fill-opacity="1" stroke-opacity="1" transform="matrix(1,0,0,1,0,0)" stroke-width="1" font-size="14" font-family="regular" font-style="normal" font-weight="normal" font-variant="normal" x="72" y="246" fill="#404040">300,000</text><text paint-order="stroke" style="stroke-linecap:butt; stroke-linejoin:miter;" alignment-baseline="central" text-anchor="end" opacity="1" fill-opacity="1" stroke-opacity="1" transform="matrix(1,0,0,1,0,0)" stroke-width="1" font-size="14" font-family="regular" font-style="normal" font-weight="normal" font-variant="normal" x="72" y="176" fill="#404040">400,000</text><text paint-order="stroke" style="stroke-linecap:butt; stroke-linejoin:miter;" alignment-baseline="central" text-anchor="end" opacity="1" fill-opacity="1" stroke-opacity="1" transform="matrix(1,0,0,1,0,0)" stroke-width="1" font-size="14" font-family="regular" font-style="normal" font-weight="normal" font-variant="normal" x="72" y="106" fill="#404040">500,000</text></g><path fill="none" opacity="1" fill-opacity="1" stroke-opacity="1" transform="matrix(1,0,0,1,0,0)" stroke-width="1" d="M 80 456L 80 106" stroke="#BFBFBF"/><g stroke="none" fill="none" opacity="1" fill-opacity="1" stroke-opacity="1" transform="matrix(1,0,0,1,0,0)" visibility="hidden"><path stroke="none" d="M 436.25000000000006,106 l 85.5,0 l 0,350 l-85.5 0 z" opacity="0.3" fill-opacity="1" stroke-opacity="1" transform="matrix(1,0,0,1,0,0)" stroke-width="1" width="85.5" height="350" fill="#CCD6EC"/></g></g><g stroke="none" fill="none" opacity="1" fill-opacity="1" stroke-opacity="1" transform="matrix(1,0,0,1,0,0)"><g stroke="none" fill="none" opacity="1" fill-opacity="1" stroke-opacity="1" transform="matrix(1,0,0,1,0,0)"><path stroke="none" d="M 112.5,192.06220000000002 l 49,0 a 4,4,0,0,1,4,4 l 0,255.93779999999998 a 4,4,0,0,1,-4,4 l -49,0 a 4,4,0,0,1,-4,-4 l 0,-255.93779999999998 a 4,4,0,0,1,4,-4 z" opacity="1" fill-opacity="1" stroke-opacity="1" transform="matrix(1,0,0,1,0,2.2737367544323206e-13)" stroke-width="1" width="57" height="263.9378" fill="#4E70F0"/><path stroke="none" d="M 226.50000000000003,177.65549999999996 l 48.99999999999997,0 a 4,4,0,0,1,4,4 l 0,270.34450000000004 a 4,4,0,0,1,-4,4 l -48.99999999999997,0 a 4,4,0,0,1,-4,-4 l 0,-270.34450000000004 a 4,4,0,0,1,4,-4 z" opacity="1" fill-opacity="1" stroke-opacity="1" transform="matrix(1,0,0,1,0,2.2737367544323206e-13)" stroke-width="1" width="56.99999999999997" height="278.34450000000004" fill="#00C5D2"/><path stroke="none" d="M 340.5,146.0589 l 49,0 a 4,4,0,0,1,4,4 l 0,301.9411 a 4,4,0,0,1,-4,4 l -49,0 a 4,4,0,0,1,-4,-4 l 0,-301.9411 a 4,4,0,0,1,4,-4 z" opacity="1" fill-opacity="1" stroke-opacity="1" transform="matrix(1,0,0,1,0,2.2737367544323206e-13)" stroke-width="1" width="57" height="309.9411" fill="#FFCE2B"/><path stroke="none" d="M 454.5,113.56 l 49.00000000000006,0 a 4,4,0,0,1,4,4 l 0,334.44 a 4,4,0,0,1,-4,4 l -49.00000000000006,0 a 4,4,0,0,1,-4,-4 l 0,-334.44 a 4,4,0,0,1,4,-4 z" opacity="1" fill-opacity="1" stroke-opacity="1" transform="matrix(1,0,0,1,0,2.2737367544323206e-13)" stroke-width="1" width="57.00000000000006" height="342.44" fill="#FF812C"/><path stroke="none" d="M 568.5,111.47050000000002 l 49,0 a 4,4,0,0,1,4,4 l 0,336.5295 a 4,4,0,0,1,-4,4 l -49,0 a 4,4,0,0,1,-4,-4 l 0,-336.5295 a 4,4,0,0,1,4,-4 z" opacity="1" fill-opacity="1" stroke-opacity="1" transform="matrix(1,0,0,1,0,2.2737367544323206e-13)" stroke-width="1" width="57" height="344.5295" fill="#FF5A5A"/></g><g stroke="none" fill="none" opacity="1" fill-opacity="1" stroke-opacity="1" transform="matrix(1,0,0,1,0,0)"><g stroke="none" fill="none" opacity="1" fill-opacity="1" stroke-opacity="1" transform="matrix(1,0,0,1,0,0)"><text paint-order="stroke" style="stroke-linecap:butt; stroke-linejoin:miter;" alignment-baseline="central" text-anchor="middle" opacity="1" fill-opacity="1" stroke-opacity="1" transform="matrix(1,0,0,1,0,0)" stroke-width="1" font-size="16" font-family="DINPro" font-style="normal" font-weight="bold" font-variant="normal" x="137" y="172.06220000000002" fill="#4E70F0">377,054</text><text paint-order="stroke" style="stroke-linecap:butt; stroke-linejoin:miter;" alignment-baseline="central" text-anchor="middle" opacity="1" fill-opacity="1" stroke-opacity="1" transform="matrix(1,0,0,1,0,0)" stroke-width="1" font-size="16" font-family="DINPro" font-style="normal" font-weight="bold" font-variant="normal" x="251.00000000000003" y="157.65549999999996" fill="#00C5D2">397,635</text><text paint-order="stroke" style="stroke-linecap:butt; stroke-linejoin:miter;" alignment-baseline="central" text-anchor="middle" opacity="1" fill-opacity="1" stroke-opacity="1" transform="matrix(1,0,0,1,0,0)" stroke-width="1" font-size="16" font-family="DINPro" font-style="normal" font-weight="bold" font-variant="normal" x="365" y="126.0589" fill="#FFCE2B">442,773</text><text paint-order="stroke" style="stroke-linecap:butt; stroke-linejoin:miter;" alignment-baseline="central" text-anchor="middle" opacity="1" fill-opacity="1" stroke-opacity="1" transform="matrix(1,0,0,1,0,0)" stroke-width="1" font-size="16" font-family="DINPro" font-style="normal" font-weight="bold" font-variant="normal" x="479.00000000000006" y="93.56" fill="#FF812C">489,200</text><text paint-order="stroke" style="stroke-linecap:butt; stroke-linejoin:miter;" alignment-baseline="central" text-anchor="middle" opacity="1" fill-opacity="1" stroke-opacity="1" transform="matrix(1,0,0,1,0,0)" stroke-width="1" font-size="16" font-family="DINPro" font-style="normal" font-weight="bold" font-variant="normal" x="593" y="91.47050000000002" fill="#FF5A5A">492,185</text></g><g stroke="none" fill="none" opacity="1" fill-opacity="1" stroke-opacity="1" transform="matrix(1,0,0,1,0,0)"/></g></g><g stroke="none" fill="none" opacity="1" fill-opacity="1" stroke-opacity="1" transform="matrix(1,0,0,1,0,0)"/></svg>